<svg width="64.05646" height="56.09162" xmlns="http://www.w3.org/2000/svg">
 <title>Ericsson logo</title>

 <g>
  <title>background</title>
  <rect fill="none" id="canvas_background" height="402" width="582" y="-1" x="-1"/>
 </g>
 <g>
  <title>Layer 1</title>
  <g stroke="null" id="svg_12">
   <path stroke="null" id="svg_1" fill="#00285e" d="m19.10559,22.559956a5.201834,5.201834 0 1 1 -3.578442,-9.768867l28.511124,-10.414919a5.143461,5.143461 0 0 1 6.68514,3.099265a5.006948,5.006948 0 0 1 -3.095556,6.51082l-28.522266,10.573701z"/>
   <path stroke="null" id="svg_2" fill="#00285e" d="m19.10559,38.017005a5.201751,5.201751 0 1 1 -3.578442,-9.768703l28.511124,-10.403022a5.125355,5.125355 0 0 1 6.68514,3.088275a4.996782,4.996782 0 0 1 -3.095556,6.50641l-28.522266,10.577039z"/>
   <path stroke="null" id="svg_3" fill="#00285e" d="m19.10559,53.471444a5.201586,5.201586 0 1 1 -3.578442,-9.768318l28.511124,-10.401895a5.123363,5.123363 0 0 1 6.68514,3.085115a4.998568,4.998568 0 0 1 -3.095556,6.508045l-28.522266,10.577053z"/>
  </g>
 </g>
</svg>