<?xml version="1.0" encoding="utf-8"?>
<!-- Generator: Adobe Illustrator 19.2.0, SVG Export Plug-In . SVG Version: 6.00 Build 0)  -->
<svg version="1.1" id="Layer_1" xmlns="http://www.w3.org/2000/svg" xmlns:xlink="http://www.w3.org/1999/xlink" x="0px" y="0px"
	 viewBox="0 0 84 19.4" style="enable-background:new 0 0 84 19.4;" xml:space="preserve">
<style type="text/css">
	.st0{fill:#00285E;}
</style>
<title>Ericsson logo</title>
<path class="st0" d="M4.9,8.5C4.2,8.7,3.6,8.4,3.3,7.8C3.1,7.1,3.4,6.5,4,6.2c0,0,0,0,0,0l6.5-2.4c0.6-0.2,1.3,0.1,1.5,0.7
	c0,0,0,0,0,0C12.3,5.2,12,5.8,11.4,6c0,0,0,0,0,0L4.9,8.5z"/>
<path class="st0" d="M4.9,12c-0.6,0.2-1.3-0.1-1.5-0.7S3.4,10,4,9.8c0,0,0,0,0,0l6.5-2.4c0.6-0.2,1.3,0.1,1.5,0.7c0,0,0,0,0,0
	c0.2,0.6-0.1,1.2-0.7,1.5c0,0,0,0,0,0L4.9,12z"/>
<path class="st0" d="M4.9,15.5c-0.6,0.2-1.3-0.1-1.5-0.7c-0.2-0.6,0.1-1.3,0.7-1.5c0,0,0,0,0,0l6.5-2.4c0.6-0.2,1.3,0.1,1.5,0.7
	c0,0,0,0,0,0c0.2,0.6-0.1,1.2-0.7,1.5c0,0,0,0,0,0L4.9,15.5z"/>
<polygon class="st0" points="16.3,4.8 23.2,4.8 23.2,6.7 18.7,6.7 18.7,8.2 23.1,8.2 23.1,10.2 18.7,10.2 18.7,11.9 23.3,11.9 
	23.3,13.9 16.3,13.9 "/>
<rect x="34.1" y="4.8" class="st0" width="2.5" height="9.1"/>
<path class="st0" d="M45.6,5l-0.1,1.9c-2-1.1-5.1-0.7-5.1,2.3c-0.1,3.1,3.1,3.6,5.2,2.5l0.1,2c-3.7,1.1-8,0-8-4.5
	C37.8,4.9,42.2,3.7,45.6,5z"/>
<path class="st0" d="M53,4.9l-0.1,1.9c-1.3-0.7-3.7-0.7-3.7,0.4c0,1.7,4.3,0.5,4.3,3.9c0,3.3-4,3.4-6.6,2.6l0.1-2c1.7,0.7,4,1,4-0.4
	c0-1.5-4.3-0.7-4.3-3.9C46.7,4.7,50,4,53,4.9z"/>
<path class="st0" d="M60.4,4.9l-0.1,1.9c-1.3-0.7-3.7-0.7-3.7,0.4c0,1.7,4.3,0.5,4.3,3.9c0,3.3-4,3.4-6.6,2.6l0.1-2
	c1.7,0.7,4,1,4-0.4c0-1.5-4.3-0.7-4.3-3.9C54.2,4.7,57.5,4,60.4,4.9z"/>
<polygon class="st0" points="72,4.8 75,4.8 78,10.6 78,4.8 80.4,4.8 80.4,13.9 77.4,13.9 74.2,7.9 74.2,13.9 72,13.9 "/>
<path class="st0" d="M64.2,9.3c0,1.4,0.6,3,1.9,3c1.4,0,2-1.5,2-3c0-1.2-0.6-3-2-3C64.8,6.3,64.2,7.9,64.2,9.3z M66.1,4.6
	c2.6,0,4.6,1.4,4.6,4.7c0,3.2-2,4.7-4.6,4.7c-2.5,0-4.5-1.5-4.5-4.7C61.6,6,63.6,4.6,66.1,4.6L66.1,4.6z"/>
<path class="st0" d="M25.1,4.8h4.4c1.3,0,3,0.5,3,2.4c0.1,1.1-0.6,2-1.7,2.3c0.4,0.1,0.7,0.4,0.8,0.8c0,0.1,1.3,3.6,1.3,3.7h-2.6
	l-0.9-2.8c-0.1-0.4-0.5-0.6-0.8-0.6c-0.5,0-1.1-0.1-1.1,0v3.4h-2.4V4.8z M27.5,8.6h1.3c0.6,0.1,1.1-0.4,1.2-1c0,0,0-0.1,0-0.1
	c0-0.6-0.5-1-1.2-1h-1.3L27.5,8.6z"/>
</svg>
